<?xml version="1.0" standalone="no"?>
<!DOCTYPE svg PUBLIC "-//W3C//DTD SVG 20010904//EN"
 "http://www.w3.org/TR/2001/REC-SVG-20010904/DTD/svg10.dtd">
<svg version="1.0" xmlns="http://www.w3.org/2000/svg"
 width="500.000000pt" height="500.000000pt" viewBox="0 0 500.000000 500.000000"
 preserveAspectRatio="xMidYMid meet">

<g transform="translate(0.000000,500.000000) scale(0.100000,-0.100000)"
fill="#000000" stroke="none">
<path d="M860 4053 c-43 -114 -21 -252 56 -341 19 -23 33 -42 31 -42 -3 0 -74
27 -159 60 -84 33 -156 60 -159 60 -3 0 -9 -24 -13 -53 -6 -59 13 -150 41
-194 l17 -26 -51 7 -52 7 6 -53 c6 -64 44 -152 81 -192 l27 -28 -112 4 c-62 2
-113 3 -113 2 0 -28 49 -143 75 -177 l36 -47 -48 0 c-26 0 -64 -3 -84 -6 l-36
-6 20 -54 c11 -29 35 -71 53 -92 34 -40 35 -52 2 -52 -24 0 -23 -11 7 -69 25
-51 73 -106 115 -133 l25 -16 -43 -11 -43 -12 22 -37 c34 -57 79 -100 128
-124 l45 -22 -52 -24 -52 -23 36 -45 c20 -24 40 -44 44 -44 4 0 38 -27 75 -60
37 -33 71 -60 74 -60 3 0 13 -5 21 -10 13 -8 12 -11 -3 -23 -17 -12 -13 -16
41 -42 42 -21 59 -35 56 -45 -3 -11 13 -26 45 -45 32 -20 46 -34 40 -41 -11
-13 83 -71 131 -80 40 -8 91 -34 85 -44 -5 -9 106 -40 141 -40 15 0 67 -12
116 -27 80 -24 95 -25 134 -15 82 22 84 21 77 -56 -5 -57 -2 -76 18 -121 l23
-54 -65 -59 c-53 -48 -61 -60 -49 -69 35 -25 118 -59 157 -65 24 -3 43 -7 43
-9 0 -1 -11 -33 -25 -70 -30 -79 -27 -114 13 -146 21 -16 38 -20 74 -17 27 2
48 -1 48 -5 0 -4 11 -19 25 -32 28 -29 75 -33 119 -10 36 19 33 20 41 -15 8
-34 48 -70 79 -70 11 0 34 7 50 15 35 18 36 18 36 1 0 -8 12 -28 26 -45 36
-43 76 -42 118 3 l31 35 17 -29 c33 -58 106 -52 138 10 20 40 21 40 50 25 16
-8 39 -15 50 -15 28 0 80 52 80 79 0 25 0 25 36 6 44 -23 97 -19 122 8 12 13
22 27 22 33 0 5 21 8 48 6 36 -3 53 1 74 17 40 32 43 67 13 146 -14 37 -25 69
-25 70 0 2 19 6 43 9 39 6 123 41 157 66 12 9 4 20 -50 69 l-65 59 24 50 c21
44 23 61 18 122 -7 80 -6 80 77 58 39 -10 54 -9 134 15 49 15 101 27 116 27
35 0 146 31 141 40 -6 10 45 36 84 44 51 9 144 65 132 79 -6 9 6 21 40 42 32
19 48 34 45 45 -3 10 13 24 56 44 57 27 60 30 42 43 -16 12 -17 15 -4 23 8 5
19 10 23 10 4 0 29 19 55 43 26 24 61 53 79 65 17 12 46 40 63 61 l30 39 -52
24 -52 24 46 23 c49 23 106 80 132 130 l16 30 -39 12 -39 12 47 37 c32 25 59
60 85 109 l37 71 -24 0 c-38 0 -38 10 -3 52 19 21 43 62 54 91 l19 52 -26 6
c-14 4 -52 7 -84 8 l-59 1 27 31 c31 38 60 93 69 134 4 17 9 37 11 45 4 13
-11 15 -107 11 l-112 -3 37 42 c38 45 61 103 72 183 7 52 6 53 -57 38 -35 -8
-51 0 -28 14 5 3 19 36 30 73 16 51 20 80 15 125 -4 31 -10 57 -14 57 -4 0
-58 -21 -121 -46 -63 -25 -137 -55 -164 -65 l-48 -20 41 47 c82 94 108 234 62
347 -13 31 -26 57 -30 57 -6 0 -350 -281 -583 -475 -42 -36 -109 -91 -150
-123 -40 -32 -96 -85 -124 -118 -47 -54 -155 -198 -179 -239 -9 -15 -21 -3
-74 79 -35 53 -67 93 -71 89 -4 -4 -14 -60 -23 -123 -10 -63 -22 -133 -28
-155 l-12 -40 -15 33 c-9 17 -19 32 -22 32 -4 0 -37 -45 -74 -100 -37 -55 -82
-112 -101 -127 -34 -27 -40 -28 -152 -29 -115 -1 -119 0 -154 27 -20 16 -62
66 -93 111 -66 97 -81 118 -88 118 -3 0 -11 -14 -18 -31 -9 -22 -15 -27 -21
-17 -8 15 -49 250 -49 284 0 13 -4 24 -9 24 -8 0 -115 -157 -124 -183 -5 -15
-2 -18 -62 68 -82 118 -184 234 -259 293 -39 32 -107 87 -151 124 -268 224
-579 478 -586 478 -4 0 -17 -26 -29 -57z m365 -304 c260 -216 289 -245 342
-344 35 -65 45 -48 14 22 -13 29 -15 40 -7 37 7 -3 34 -58 60 -122 27 -64 51
-121 56 -125 13 -15 -11 96 -31 143 l-20 44 24 -22 c13 -13 41 -60 62 -105 86
-188 108 -231 112 -220 2 6 -11 52 -30 102 -19 50 -33 91 -32 91 1 0 20 -26
42 -57 41 -59 98 -197 87 -214 -3 -5 -1 -9 3 -9 5 0 20 -33 32 -72 23 -70 81
-201 87 -195 2 1 -12 52 -31 112 -19 61 -36 119 -38 130 -1 11 -6 26 -11 34
-6 9 -5 12 2 7 6 -4 19 18 32 56 11 35 27 74 35 88 l13 25 6 -25 c29 -133 62
-260 86 -335 31 -100 60 -270 60 -360 0 -32 2 -56 5 -53 3 2 12 65 20 139 8
74 19 149 24 166 5 18 6 35 2 38 -5 2 -11 33 -14 67 -4 35 -9 77 -12 93 l-6
30 17 -25 c10 -14 49 -55 87 -92 66 -63 71 -66 106 -60 47 9 148 9 187 0 29
-6 37 -1 101 60 38 37 77 78 87 92 17 25 17 25 10 -20 -3 -25 -7 -65 -9 -89
-2 -24 -8 -48 -13 -53 -6 -6 -7 -22 -1 -42 5 -17 16 -89 24 -160 9 -72 17
-131 19 -133 2 -2 6 41 10 94 7 116 30 224 79 388 20 66 44 156 53 199 l17 80
23 -45 c12 -25 29 -70 37 -101 14 -54 14 -58 -17 -159 -18 -57 -36 -115 -40
-129 -6 -21 -3 -19 15 9 12 18 51 117 87 219 46 136 75 202 104 244 23 32 42
58 43 58 2 0 -10 -33 -25 -74 -15 -41 -31 -87 -34 -103 l-7 -28 16 23 c9 12
43 82 76 155 32 72 71 143 84 157 l26 25 -21 -47 c-18 -42 -40 -150 -27 -138
3 3 26 58 52 122 26 64 54 119 61 122 8 3 6 -8 -7 -37 -10 -23 -19 -53 -19
-67 0 -20 5 -14 24 25 49 104 97 153 381 389 l280 232 8 -38 c12 -55 -8 -138
-46 -191 -33 -45 -161 -158 -300 -261 -90 -68 -224 -191 -216 -200 3 -3 49 29
102 71 95 76 101 79 389 194 161 64 294 113 296 109 6 -17 -19 -87 -48 -133
-35 -56 -90 -93 -203 -138 -45 -18 -87 -36 -93 -40 -6 -5 -52 -22 -104 -39
-104 -34 -200 -82 -227 -113 -18 -21 -18 -21 17 1 20 11 107 45 195 75 88 30
185 65 215 77 54 22 271 72 279 64 10 -10 -38 -93 -75 -130 -55 -56 -128 -81
-282 -99 -70 -8 -152 -22 -182 -31 -52 -15 -174 -73 -167 -80 1 -2 52 13 111
32 106 34 115 35 345 45 130 6 262 9 295 7 l59 -3 -34 -45 c-19 -24 -54 -58
-78 -75 l-43 -30 -201 -6 c-166 -5 -214 -10 -267 -27 -99 -32 -121 -54 -33
-31 113 28 237 32 477 15 121 -9 221 -18 224 -20 9 -10 -86 -100 -123 -117
-70 -30 -114 -31 -266 -8 -157 23 -287 23 -348 -3 -32 -13 -28 -14 67 -10 112
5 589 -43 607 -60 15 -15 -77 -93 -132 -112 -58 -20 -130 -20 -208 0 -59 15
-386 33 -374 20 3 -3 73 -13 155 -22 131 -14 264 -43 457 -100 18 -6 17 -7 -3
-29 -68 -73 -145 -74 -385 -8 -165 46 -255 70 -295 78 -44 9 -134 17 -129 11
3 -3 68 -24 145 -45 199 -57 290 -90 451 -161 155 -69 159 -75 78 -106 -31
-11 -64 -15 -107 -12 -54 3 -87 16 -232 86 -178 86 -279 125 -256 97 7 -8 18
-15 26 -15 7 0 96 -42 197 -94 102 -52 202 -98 223 -102 22 -4 50 -12 64 -20
l25 -13 -37 -15 c-21 -9 -59 -16 -86 -16 -41 0 -61 8 -138 57 -87 55 -264 144
-314 158 -24 7 -24 6 -5 -7 11 -8 72 -43 135 -78 63 -34 161 -95 217 -134 115
-80 116 -92 9 -84 -58 5 -69 10 -150 70 -93 69 -277 172 -221 124 17 -14 77
-58 135 -98 176 -120 241 -171 227 -180 -6 -4 -34 -8 -62 -8 -55 0 -59 2 -202
107 -87 64 -213 140 -213 129 0 -5 153 -120 313 -235 48 -34 85 -67 82 -72 -8
-12 -87 -11 -121 1 -15 6 -54 34 -88 62 -103 88 -104 86 -6 -15 l95 -97 -56 0
c-42 0 -63 5 -83 21 -36 28 -33 12 6 -28 l32 -33 -33 0 c-48 0 -92 25 -135 76
-21 25 -40 43 -43 40 -3 -2 18 -33 46 -68 47 -57 50 -63 30 -66 -40 -7 -72 9
-117 56 -51 54 -46 40 11 -33 l40 -50 -26 -3 c-14 -2 -39 4 -56 12 -16 9 -39
16 -51 16 -12 0 -34 7 -50 15 -27 14 -44 5 -20 -10 17 -11 11 -25 -11 -25 -32
0 -56 17 -94 67 -41 54 -44 50 -10 -17 14 -28 22 -50 18 -50 -4 0 12 -20 36
-44 33 -33 45 -56 52 -91 11 -60 -2 -90 -21 -46 -7 19 -20 31 -31 31 -21 0
-43 38 -53 91 -4 21 -19 48 -37 65 -17 16 -44 54 -60 84 -17 30 -28 50 -27 45
9 -31 43 -111 49 -115 4 -3 21 -32 38 -64 34 -64 41 -128 17 -174 -13 -27 -12
-28 74 -107 49 -43 87 -82 84 -86 -9 -16 -95 -21 -145 -9 -36 9 -59 22 -77 44
-47 56 -152 156 -163 156 -6 0 14 -29 44 -63 102 -116 236 -339 223 -372 -16
-43 -133 6 -166 71 -8 16 -60 91 -114 168 -55 77 -115 164 -133 195 -18 30
-33 49 -33 43 0 -23 58 -128 129 -235 39 -58 71 -107 71 -110 0 -3 13 -19 29
-36 35 -38 58 -85 63 -131 2 -29 0 -35 -18 -38 -49 -7 -195 136 -180 175 3 8
2 11 -3 8 -5 -3 -12 3 -15 13 -4 10 -31 60 -61 111 -30 51 -55 99 -55 106 0 7
-6 15 -14 18 -11 5 -13 0 -6 -21 6 -22 114 -239 157 -317 17 -29 21 -141 7
-155 -9 -9 -17 -9 -32 -1 -27 14 -65 78 -56 92 4 8 3 9 -4 5 -11 -6 -15 5 -11
30 0 4 -3 10 -9 13 -5 3 -24 60 -43 126 -30 106 -35 116 -39 85 -3 -19 -2 -46
2 -60 4 -14 19 -64 34 -112 27 -90 28 -136 3 -215 -13 -40 -24 -42 -43 -5 -42
82 -56 161 -56 319 0 100 -3 152 -10 148 -6 -4 -10 -68 -10 -158 0 -136 -3
-160 -25 -228 -31 -92 -50 -121 -64 -99 -6 8 -15 45 -21 83 -11 63 -10 74 15
155 14 48 29 98 33 112 4 14 5 41 2 60 -5 32 -7 27 -33 -60 -15 -52 -33 -113
-38 -135 -22 -88 -88 -179 -118 -161 -6 4 -11 35 -11 70 0 59 5 72 81 219 70
137 105 217 94 217 -2 0 -34 -53 -71 -117 -37 -65 -71 -119 -75 -121 -5 -2 -6
-9 -4 -15 13 -38 -136 -187 -186 -187 -40 0 -17 96 39 168 51 66 169 246 197
302 15 30 32 57 36 58 5 2 6 8 3 14 -3 5 -18 -8 -32 -29 -45 -68 -226 -328
-232 -333 -3 -3 -11 -17 -17 -32 -26 -59 -146 -114 -168 -78 -16 26 115 250
213 365 28 33 48 61 43 63 -10 3 -103 -85 -153 -144 -18 -22 -41 -35 -77 -44
-50 -12 -136 -7 -145 8 -2 4 48 54 111 111 111 101 115 106 110 140 -3 25 3
51 19 82 38 77 44 78 119 20 104 -80 130 -88 72 -24 -18 20 -18 27 -8 69 17
68 25 203 14 244 l-10 35 -7 -55 c-6 -48 -9 -53 -19 -35 -13 21 -15 204 -5
285 6 44 6 44 -14 -15 -14 -40 -22 -91 -23 -150 -4 -125 -52 -243 -110 -265
-18 -7 -18 -8 8 -15 33 -9 35 -21 4 -29 -32 -8 -44 -36 -72 -171 -13 -58 -15
-62 -30 -35 -25 43 -18 112 16 176 17 32 34 61 38 64 6 5 47 95 57 130 3 8 -9
-12 -27 -45 -17 -33 -47 -77 -65 -97 -18 -21 -36 -50 -39 -65 -11 -49 -34 -93
-50 -93 -8 0 -24 -14 -34 -31 -16 -27 -19 -28 -24 -10 -11 44 10 102 54 147
24 24 40 44 36 44 -4 0 6 28 23 63 17 34 22 51 13 37 -38 -55 -91 -100 -117
-100 -31 0 -31 2 -8 38 l17 27 -32 -23 c-17 -12 -43 -22 -58 -22 -14 0 -40 -7
-56 -16 -17 -8 -42 -14 -55 -12 -25 3 -25 3 20 62 55 70 60 87 8 29 -44 -49
-69 -63 -112 -63 l-32 0 52 65 c29 36 50 68 47 71 -2 3 -21 -15 -41 -40 -42
-50 -88 -76 -137 -76 l-33 0 32 33 c39 40 42 56 6 28 -20 -16 -41 -21 -83 -21
l-56 0 100 102 c101 103 100 104 -10 10 -33 -28 -73 -55 -88 -61 -34 -13 -114
-14 -121 -2 -3 4 80 70 184 146 105 76 196 145 202 153 22 27 -109 -50 -205
-121 -143 -105 -147 -107 -202 -107 -104 0 -102 2 168 189 82 57 146 105 143
108 -9 9 -144 -70 -234 -136 -81 -61 -91 -65 -148 -69 -107 -7 -105 5 9 84 56
40 162 104 235 144 73 40 131 75 129 77 -13 12 -220 -89 -342 -166 -85 -55
-134 -64 -204 -40 -51 18 -34 39 42 53 21 4 121 50 224 102 102 51 192 94 198
94 7 0 18 6 24 14 23 27 -97 -18 -264 -100 -137 -67 -169 -79 -223 -82 -64 -4
-139 15 -161 41 -22 27 549 251 595 233 8 -3 13 -2 10 3 -3 5 26 17 64 26 39
9 70 20 70 22 0 5 -88 -2 -140 -12 -14 -3 -110 -28 -215 -56 -250 -68 -300
-79 -343 -72 -45 7 -101 34 -125 61 -18 20 -18 20 0 26 197 58 326 86 463 101
85 9 156 18 159 21 11 11 -244 2 -324 -12 -210 -37 -280 -27 -362 51 -28 27
-43 49 -37 54 5 4 59 14 119 20 61 7 168 19 239 27 74 9 177 14 239 12 101 -3
107 -2 76 10 -62 26 -186 27 -347 2 -164 -24 -222 -20 -288 20 -34 22 -108 99
-101 106 2 2 102 11 223 20 240 17 364 13 477 -15 88 -23 66 -1 -33 31 -53 17
-101 22 -265 27 -182 5 -203 8 -235 28 -39 24 -78 64 -106 107 l-18 29 244 -8
c299 -8 360 -15 474 -54 50 -17 91 -29 94 -27 2 2 -28 20 -67 39 -77 38 -159
59 -316 77 -125 15 -192 40 -245 91 -36 35 -88 124 -78 134 8 9 231 -45 298
-72 41 -17 134 -49 205 -73 72 -23 150 -53 174 -66 42 -23 44 -23 25 -3 -26
29 -119 75 -222 109 -48 15 -100 35 -117 43 -16 8 -65 29 -107 47 -99 41 -150
78 -183 135 -24 40 -51 123 -43 130 2 2 135 -50 296 -114 288 -115 294 -118
389 -194 54 -42 102 -77 108 -77 19 1 -139 144 -260 237 -135 102 -235 190
-265 232 -29 41 -50 135 -43 187 l6 44 31 -27 c17 -14 144 -119 281 -234z"/>
<path d="M3262 3100 c0 -14 2 -19 5 -12 2 6 2 18 0 25 -3 6 -5 1 -5 -13z"/>
<path d="M1732 3090 c0 -14 2 -19 5 -12 2 6 2 18 0 25 -3 6 -5 1 -5 -13z"/>
<path d="M1732 2880 c0 -14 2 -19 5 -12 2 6 2 18 0 25 -3 6 -5 1 -5 -13z"/>
<path d="M3261 2864 c0 -11 3 -14 6 -6 3 7 2 16 -1 19 -3 4 -6 -2 -5 -13z"/>
<path d="M3661 2804 c0 -11 3 -14 6 -6 3 7 2 16 -1 19 -3 4 -6 -2 -5 -13z"/>
<path d="M1331 2794 c0 -11 3 -14 6 -6 3 7 2 16 -1 19 -3 4 -6 -2 -5 -13z"/>
<path d="M2270 2613 c0 -4 14 -22 32 -40 18 -18 37 -48 43 -66 8 -27 16 -33
45 -35 19 -2 43 -11 53 -19 37 -34 14 7 -30 53 -48 50 -143 121 -143 107z"/>
<path d="M2320 2599 c0 -5 4 -8 8 -5 19 11 84 -32 112 -74 34 -51 39 -36 11
27 -16 34 -27 44 -58 52 -48 14 -73 14 -73 0z"/>
<path d="M2603 2599 c-23 -7 -37 -20 -52 -52 -31 -63 -25 -79 9 -27 28 42 93
85 112 74 4 -3 8 0 8 5 0 13 -33 13 -77 0z"/>
<path d="M2674 2581 c-51 -37 -139 -129 -132 -136 3 -3 12 1 20 9 8 8 30 16
49 18 28 2 36 8 44 35 6 18 26 49 45 68 41 42 27 46 -26 6z"/>
<path d="M2233 2502 c4 -72 24 -106 80 -137 21 -11 37 -28 37 -37 0 -25 13
-22 49 7 l30 26 15 -23 c8 -13 22 -40 32 -60 10 -21 20 -38 23 -38 3 0 21 27
39 60 l33 60 33 -25 c39 -30 46 -31 46 -7 0 9 16 26 37 37 56 31 76 65 80 137
l3 63 -16 -50 c-30 -94 -74 -129 -150 -123 -28 2 -38 7 -36 18 3 12 1 13 -9 3
-10 -10 -17 -9 -36 9 l-23 21 -25 -23 c-32 -30 -109 -39 -153 -16 -35 18 -50
39 -74 111 l-17 50 2 -63z m292 -122 c17 -19 17 -21 0 -60 -10 -22 -21 -40
-25 -40 -4 0 -15 18 -25 40 -17 39 -17 41 0 60 10 11 21 20 25 20 4 0 15 -9
25 -20z"/>
<path d="M2722 2540 c0 -14 2 -19 5 -12 2 6 2 18 0 25 -3 6 -5 1 -5 -13z"/>
<path d="M2825 2300 c14 -82 16 -249 4 -290 l-12 -45 -12 55 c-11 54 -11 55
-18 21 -11 -53 -8 -122 8 -210 l16 -81 -28 -37 -28 -36 25 13 c14 7 53 35 87
61 35 27 77 58 95 69 18 11 26 20 17 20 -49 0 -106 135 -112 270 -3 59 -13
118 -26 155 -11 33 -19 49 -16 35z"/>
<path d="M2194 2184 c7 -22 51 -114 96 -203 l83 -163 -31 -80 c-26 -69 -28
-77 -10 -61 22 20 48 65 57 100 5 21 10 17 55 -37 28 -33 53 -60 56 -60 4 0
29 27 57 59 l50 60 11 -37 c6 -20 25 -53 42 -72 l30 -35 -21 55 c-12 30 -26
67 -31 81 -8 23 2 49 73 190 79 156 112 230 105 236 -2 2 -33 -45 -71 -103
-82 -128 -163 -219 -211 -234 -75 -25 -147 34 -271 224 -81 124 -88 132 -69
80z"/>
<path d="M1991 2044 c0 -11 3 -14 6 -6 3 7 2 16 -1 19 -3 4 -6 -2 -5 -13z"/>
<path d="M1888 2033 c7 -3 16 -2 19 1 4 3 -2 6 -13 5 -11 0 -14 -3 -6 -6z"/>
<path d="M3098 2033 c7 -3 16 -2 19 1 4 3 -2 6 -13 5 -11 0 -14 -3 -6 -6z"/>
<path d="M2952 1783 c34 -38 57 -100 52 -134 -5 -27 -1 -39 15 -53 12 -11 23
-17 25 -15 2 2 -2 27 -9 54 -7 28 -15 66 -19 86 -7 40 -38 79 -63 79 -15 0
-15 -2 -1 -17z"/>
<path d="M2066 1695 c-3 -8 -1 -15 4 -15 13 0 22 18 11 24 -5 3 -11 -1 -15 -9z"/>
<path d="M2916 1701 c-3 -5 1 -14 9 -21 12 -10 15 -10 15 3 0 19 -16 31 -24
18z"/>
</g>
</svg>
